<svg id="图层_1" data-name="图层 1" xmlns="http://www.w3.org/2000/svg" viewBox="0 0 115.25 43.04"><defs><style>.cls-1{fill:#d9312b;}</style></defs><title>characters_bg</title><path class="cls-1" d="M103.68,36.83a7.84,7.84,0,0,1-.32-2.47,9.47,9.47,0,0,1,1,.06,5.31,5.31,0,0,0,1.62-1.2c.15-.36-.53-1.5-.56-1.89a.74.74,0,0,1,.38-.72,5.11,5.11,0,0,1,1.34.53,9,9,0,0,1,.91,1,2.41,2.41,0,0,1,.64-.12,12.37,12.37,0,0,1,1.69-1c.09,0,.3-.23.32-.72s-1.36-1.05-2.48-1.65-.51-.48-1.36-.88a31.88,31.88,0,0,0-4.5-.92,3.44,3.44,0,0,0-1.29-1.95,1.47,1.47,0,0,0-.05-.37s-.52-.33-.52-.47.33-.25.33-.25a.81.81,0,0,1-.4-.88c.05-.22,1.12-.56,1.12-.56a3.81,3.81,0,0,0-.85-.21,8.28,8.28,0,0,0-.91.1,1.65,1.65,0,0,0,0-.56c0-.13-.69-.47-.8-.57s.11-.66.11-.66a1.93,1.93,0,0,0-1,1.09,1.71,1.71,0,0,0,.24.21c.09.05,0,.48,0,.48a2,2,0,0,0-.3.23,1.14,1.14,0,0,0-.29,0s0,.23,0,.23-.37.42-.37.42a1.92,1.92,0,0,1,.56.15c.08.05,0,.34,0,.34a2.24,2.24,0,0,0-.66.16c.15,0,.3.56.3.56l-.52.3s.21.06.21.14-.77.72-.8.86.32,4.58.25,4.72-.47,2.79-.46,3a2.68,2.68,0,0,0,.28.72c-.05,0-.11,1.92-.18,2.21s-.57.4-.57.4H92.12c-.56-.3-.58-2.27-.58-2.27.09-.37.64-.47.51-1,0-.06-.34-.26-.38-.31a2.49,2.49,0,0,1,0-.62s-.35-.33-.37-.37a4.46,4.46,0,0,0-.15-.89.48.48,0,0,1,0-.34l2.46,3.56s.18.18.32.14.05-.24.05-.24l-3.08-4.43v-.19l3.25,3.82s.09.13.33.07,0-.25,0-.25l-3.74-4.7a.87.87,0,0,1,0-.22l4.11,4a.41.41,0,0,0,.33.06c.18-.05.09-.27.09-.27s-3.92-4-4.71-4.6a.4.4,0,0,0,.18-.23c0-.15.13-.56.29-.54a7.94,7.94,0,0,1,.8,0c.18,0,.16.77.16.77a2.13,2.13,0,0,0,1-1.65c-.1-.41-1.82-1.05-1.82-1.05s.51-.32.4-.51c-.19-.46-1.47-1.23-1.47-1.23S90,23.06,90,23s.3-.32.32-.4-.19-.19-.25-.22S90,22,90,22s-.48,0-.57,0-.49-.18-.57-.17a3.25,3.25,0,0,0-.8.57A2,2,0,0,0,88,23c0,.05.27.22.27.22v.16l-.38.16c-.1,0,0,.28-.13.36a3.09,3.09,0,0,1-.49.13,1.28,1.28,0,0,0-.18.28c0,.08-.68.46-.69.64s.43.43.45.52-.39.49-.35.64.77.44.77.44-.48,5.57-.48,5.7.2.39.21.59-.4.7-.32,1a3.55,3.55,0,0,0,.58.65c-.08.07-.2,2.33-.2,2.33H82.35c-.16-.6-1.24-5.49-1.24-5.49s-.32-2.22-.32-2.22a1.56,1.56,0,0,0,.44-.65c0-.07-1.19-1.51-1.18-1.58a10.18,10.18,0,0,1,.72-.84,3.48,3.48,0,0,0,.59.27c.31,0,.41-.15.4-.25S80.7,25,80.7,25s0,0,.07,0,.2-.18.2-.18-.35-.47-.4-.53a4.06,4.06,0,0,1-.09-.73.78.78,0,0,0-.86-.51.89.89,0,0,0-.83.53s-.09.07-.1.12.25.35.25.42-.05.39-.05.46.1.41.1.42a.55.55,0,0,1-.06.09c-.83.28-.84.39-.86.46a1.16,1.16,0,0,0,.07.32L78,27.87a11.18,11.18,0,0,0-.17,1.38c0,.13.51.64.51.71s.42,6.06.4,6.16-.19.71-.19.71H72.31c0-.14-.29-.2-.31-.26a.74.74,0,0,1,0-.2s.14-.06.13-.11A1.87,1.87,0,0,0,72,36s-.09-.38,0-.41,0-.61.05-.65.05-.43.07-.57-.07-.6,0-.6a4,4,0,0,1,.64.3.62.62,0,0,0,.54.31l0-.24.4,0c-.08-.33-.67-.31-.72-.32s-1-.55-1.09-.62a9.14,9.14,0,0,0-.93-.3l0-.05a1.66,1.66,0,0,0,.63-.41c1.27-.24,1.53-.55,1.52-.76s-.93-.41-.93-.41V31a2,2,0,0,0,.67-.86.75.75,0,0,0-.38-.81.44.44,0,0,0-.38.1c-.08.1-.34.73-.37.62s.32-.41.24-.63-.49-.16-.59-.14-.17.31-.23.38a1.25,1.25,0,0,1-.27.17,4.53,4.53,0,0,0-1.18-.16,4,4,0,0,0-1.57.58,1.94,1.94,0,0,0,0-.34s-.05-.14-.41-.17-.23.78-.42.75.07-.55.06-.57a.46.46,0,0,0-.35-.1c-.19,0-.62.42-.5.8s1.12.44,1.12.44l.05.26s-1.07.18-1.05.73,1.83.48,1.83.48a2,2,0,0,0,.46.31c.07,0,0,.25,0,.25s-1,.73-1.15.83l-.48.3a.62.62,0,0,0-.67.27l.46.06,0,.29a.42.42,0,0,0,.45-.38,1.87,1.87,0,0,1,.94-.44c.11,0,.14.75.1.77a.4.4,0,0,0-.17.25,6.67,6.67,0,0,1,.17,1.06c-.07,0-.2.18-.19.23s.17.14.24.17,0,.12,0,.12l-.1,0c-.05,0-.08.11-.08.11H61c-.69-.2-.78-1.05-.92-1.33a24.37,24.37,0,0,1-.37-2.76c.89-.25.83-.53.8-.58s-.39-.2-.39-.26-.77-2.36-.81-2.4a1,1,0,0,1,0-.43c0-.06.4-.23.4-.23-.32-.23-.52-1.18-.52-1.18a2.1,2.1,0,0,0,.39-.09.6.6,0,0,0,.18-.23s-.05-1,0-1a2,2,0,0,0,0-.72,9.78,9.78,0,0,0-1-.51,1.93,1.93,0,0,1-.26-.17v-.11a.25.25,0,0,1-.09,0s0-.33,0-.33a2,2,0,0,0,.56-.41s1.25,0,1.26-.17S59,23.46,59,23.46s.14-.95-1.24-.91-1.19,1-1.19,1a1.6,1.6,0,0,0-1,.41,6.68,6.68,0,0,0,1.27.15c0,.05.41.32.44.37a.52.52,0,0,1,0,.2l-.08,0A.59.59,0,0,1,57,25l-1.45.61a.68.68,0,0,0-.2.41,1.22,1.22,0,0,0,.14.37v0s-.1,1-.1,1a.37.37,0,0,0,.13.25,1,1,0,0,0,.45.1,16.71,16.71,0,0,1-.65,2c-.16.45-.61,2.36-.61,2.36s-.51.5-.51.53a5.19,5.19,0,0,0,.51.33,19.29,19.29,0,0,1-.83,3.44,1.37,1.37,0,0,1-.47.47H46.12A9.86,9.86,0,0,1,46,35.72,4.38,4.38,0,0,1,46,35c0-.06-.05-.08-.05-.12s-.08-.62-.1-.66.1-.08.1-.13a.48.48,0,0,0-.07-.18,1.65,1.65,0,0,1,0-.45s-.12-.12-.14-.18.07,0,.1-.1-.08-.21-.08-.23,0-1.19,0-1.23.14-.09.15-.16-.11-.12-.14-.23,0-1.24,0-1.28.05-.1.08-.16,0-.13,0-.18a1.93,1.93,0,0,1,.08-.44c0-.16.18-2.69.21-2.76s.63-.1.69-.23-.23-.5-.33-.55,0-.17,0-.26-.18-.29-.18-.37.55-.35.69-.35.18.36.43.31.07-.16.07-.19-.1-.11,0-.23.26-.14.56-.2v8.78a.26.26,0,0,0,.25.14.16.16,0,0,0,.16-.18V24.28a4.68,4.68,0,0,1,1.18-.39l.47-.09c.1,0,.38-.22.38-.3s-.81-.34-.89-.36-.8-.38-.91-.41-.4,0-.55-.06a1.35,1.35,0,0,1-.5-.2c-.1-.07,0-.25-.09-.31a4.78,4.78,0,0,0-.63-.22c-.11-.06-.43-.34-.55-.43s-.05-.26-.1-.32-.47.06-.55.06,0-.1,0-.17-.07-.06-.15-.1.07-.13.19-.16.18-.17.32-.19.14.15.25.14,0-.11.25-.17.44-.11.44-.18-.25-.08-.21-.27.38,0,.45,0,.23-.14.08-.19c-.3,0-.23-.12-.22-.18s.29,0,.3-.09-.23-.1-.27-.24.56-.14.48-.38c0-.06-.19,0-.19-.13s.36-.38.34-.48-.15,0-.25-.06,0-.16,0-.22-.23,0-.3-.09.16-.1.18-.19-.33-.12-.33-.12a2.2,2.2,0,0,0-.55-.31c-.14,0-.15.07-.27.08s-.08-.14-.21-.18-.16,0-.29,0-.11,0-.14-.17-.45-.41-.58-.43-.19.13-.41.14-.29-.22-.58-.24-.47.22-.6.29-.51,0-.56,0,0,.17,0,.17a.52.52,0,0,1-.33.14c-.41,0-.33-.18-.3-.22a1.61,1.61,0,0,1,.38-.1c.08,0,1.17-.3,1.33-.36a5,5,0,0,0,1-.41,1.59,1.59,0,0,0-.66.13.64.64,0,0,1-.47,0c-.07,0-.08-.23-.1-.29a.35.35,0,0,0-.14-.18,1.12,1.12,0,0,1-.18-.29s-.27-.38-.56-.42a4.23,4.23,0,0,0-1.4.36,2.4,2.4,0,0,0,.38.47,4.6,4.6,0,0,1,.36.64,2.8,2.8,0,0,1-.32,0,2.83,2.83,0,0,0-.52-.18,1.64,1.64,0,0,0-.55.23,6.8,6.8,0,0,1-.58.55c-.08,0-.26,0-.34.08a.43.43,0,0,0-.15.22c0,.08-.43.24-.49.27A.23.23,0,0,0,39,18a19.72,19.72,0,0,1-1.55,1.52c-.1.08-.37.22-.41.3s-.34.26-.33.35.51.17.75.19a14.14,14.14,0,0,1,1.4.45,3,3,0,0,0,.43.08c.12,0,.59.12.89.19s1.54.36,1.66.44,0,.53.12.71.45,1,.45,1a1.62,1.62,0,0,1,.11.54s-.52,0-.69,0a.84.84,0,0,0-.49.3c0,.09.63.6.63.6.25,0,.71,0,.71,0a4.28,4.28,0,0,0,.47,1c.08.15-.25,6.57-.25,6.57s-.1,1.8-.12,2.59c0,.53-.16.34-.07.55a5.53,5.53,0,0,1,0,1.36H35.36s-1.16-6-1.21-7.66l0-1s.13-.16.22-.25a4.23,4.23,0,0,0,.06-1.06,1.24,1.24,0,0,0,.05-.39c0-.08-.19-.13-.19-.13V26s-.07-.46-.07-.57a2.12,2.12,0,0,0-.11-.78c-.12-.28-.81-.64-.83-.68s-.1-.18,0-.27a.79.79,0,0,0,.21-.5.78.78,0,0,0-.82-.71.9.9,0,0,0-.93.6s-.12.21-.12.25a.31.31,0,0,0,.09.18c.05,0,0,.21,0,.23s-.08.2-.1.22-.88.53-.88.56a.61.61,0,0,0,0,.28,11.85,11.85,0,0,1-.92,1.66,1.24,1.24,0,0,0,.55.41c.12,0,.51-.4.54-.37a7.33,7.33,0,0,1,0,.83c0,.09.1.78.1.86s-.31.92-.2,1a.87.87,0,0,1,.23.23L29.9,36.83H24.26a12.22,12.22,0,0,1-1-2.34c0-.23,0-1-.08-1.18s-.45-1-.49-1.22a1.67,1.67,0,0,0,0-.46c-.23-.93-.83-2.92-.84-3a8.85,8.85,0,0,1,.21-1.18,10.14,10.14,0,0,1,2.63-1.33c.11,0,.21,0,.58.5s.25.87.45,1,.42,0,.62.18c.13-.15-.37-.27-.37-.48a2.82,2.82,0,0,0,.2-1.24c-.1-.69-.81-1.24-.8-1.33s.25-.28.23-.39c-.37-.51-.72-.94-.72-1.25s.23-.4.19-.49-.47-.22-.52-.25a3.07,3.07,0,0,1,0-.68A14,14,0,0,0,23,20.7a7.48,7.48,0,0,0-1,0,1.85,1.85,0,0,0,.42-.44,3.38,3.38,0,0,1-.69.1v-.18h-.47l-.05-.09-.47,0v-.4c.13,0,.58.13.58.13l-.48-.36s.59-.31.59-.46-.69-.65-.69-.65.19.27.06.35a1,1,0,0,1-.45.18c-.13,0-.35-.1-.59-.1A1.35,1.35,0,0,0,19,19a.48.48,0,0,0-.2.52,3.79,3.79,0,0,0-1.3,0c.78.19.61.43.61.43a1.27,1.27,0,0,0-.49.07,1.07,1.07,0,0,1,.61.35,3.08,3.08,0,0,0-1.42.5c.06,0,.75-.13.68-.07s-1.33.88-1.47,1a4,4,0,0,0-.45.65c-.05.06-.19.41-.13.46a4.76,4.76,0,0,1,0,.94s-.16.15-.16.22.48.37.52.41,0,.27-.1.32-.05.33-.05.39.78.53.75.55a6.36,6.36,0,0,0,.1,1.43,12.22,12.22,0,0,0,1.15.54,1.53,1.53,0,0,1,.23.42c-.05,0-.27,2.61-.31,2.72s-.1.89-.1.89-.32.74-.44,1-.69,4.06-.69,4.06H10.61s0-1.22-.08-1.35-.08-3.47-.05-3.62.2-2,.24-2a1.19,1.19,0,0,0,.14-.19v-.33s.23-.21.25-.31a9.85,9.85,0,0,0-.42-1.23s0-1.53,0-1.56.1-1.11.1-1.3a7,7,0,0,0-.08-1l-.3-.38c-.08-.09-.52-.32-.54-.43s0-.72,0-.72.08-1.11-.83-1.15c-1.07,0-1,1.49-1,1.6s.16.19.21.27,0,.1,0,.1a1.29,1.29,0,0,0-.46.22c-.07.06,0,.41,0,.41a1.77,1.77,0,0,0-.36.28,9.58,9.58,0,0,1,.15,1.33c0,.31-.08.84-.08.84l-.18.16.23.19a6.69,6.69,0,0,1-.15.69,5.18,5.18,0,0,0-.1,2c.05.26.49.34.49.34-.09.19-.07,4.6-.07,4.6l-.14,1.18-.29,1.34H-.91v6.63H115.25V36.83Zm-62-16a3.55,3.55,0,0,0-.52-.21c-.11,0-.21.07-.3.07s-.36-.06-.45-.07-.45-.06-.53-.08-.23-.1-.36-.13a.74.74,0,0,0-.28,0c-.09,0,0-.08-.21-.12s-.32-.07-.57-.11a.9.9,0,0,1-.39-.15s-.18-.09-.18-.16l.25-.23c.09-.07.5-.32.57-.38s.16-.21.21-.24.87-.6,1-.68.23,0,.37,0,.09.27.07.3-.11,0-.21,0-.14.26-.14.3.45.19.46.26-.09.1-.14.11-.21.24-.07.24.53.18.52.26-.36.15-.36.21.25.12.34.15.11.16.23.2.27-.16.43-.14,0,.18,0,.23.16,0,.32,0,0,.16,0,.21.23.1.25.13S41.8,20.89,41.71,20.87ZM7.71,28a21.2,21.2,0,0,1,.51-2.48s.32.4.29.6S7.71,28,7.71,28Zm.24,8.87s.8-6.73,1.08-6.77L9.16,30a.3.3,0,0,1,.24.08l.54,6.74Zm2.27-9.36a5.61,5.61,0,0,1-.4-1.09c-.08-.23.4-1,.4-1Zm12.85,9.36H17.25l-.05-.59s.7-2.08.71-2.14a6.07,6.07,0,0,1,.35-.79,6,6,0,0,0,0-1.1s.4-.53.4-.53,1.12-2.39,1.2-2.59c.21.25,1.41,2.89,1.39,2.85s.38.37.38.38a5.54,5.54,0,0,1,0,.74c0,.09,1.35,2.9,1.47,3S23.08,36.82,23.08,36.82Zm7.8,0,1.26-6.6s.12-.45.32-.45.33.44.33.44l1.47,6.62Zm14-1.23s0,.81,0,1.23H43.84c0-.11,0-.23,0-.23s0-.22,0-.26a.93.93,0,0,1,0-.31s0-1.63.07-1.66-.05-.22,0-.35a1.47,1.47,0,0,0,0-.6,1.59,1.59,0,0,1,0-.36,1.09,1.09,0,0,0-.05-.32.22.22,0,0,1,0-.22c.05,0,.05,0,0-.12s0-.11,0-.14A.89.89,0,0,0,44,32c0-.07,0-1.89,0-1.95s.1-.64.1-.78a2.26,2.26,0,0,0,0-.38c0-.07.05-.21.05-.27a2.32,2.32,0,0,1,0-.44,2.66,2.66,0,0,0,0-.47s.08-.18.08-.28a1.68,1.68,0,0,1,.12-.53c.05-.07,0-.24.18-.26s.18.22.18.25.14.14.15.2a1.91,1.91,0,0,1,.05.49c0,.18.08,1.52.08,1.59s-.07,1.62-.07,1.68v4c0,.08-.1.41-.1.47A3,3,0,0,0,44.93,35.6Zm.85-13.25c.16-.1.34,0,.46.08l.52.27c.09,0,.27-.06.34,0a5.72,5.72,0,0,0,.76.33c.09,0,.34.16.41.18s.05.11.12.12.37.07.37.13-.2.1-.32.15-.09.18-.21.17-.57-.22-.69-.17c-.37.12-.32.27-.52.38s-.53,0-.68,0-.09.12-.23.12a.26.26,0,0,1-.23-.1A4,4,0,0,1,45.77,22.35Zm13.6,14.47H54.72a1.48,1.48,0,0,1,0-.41.85.85,0,0,0,.13-.52c.13-.25,1-2.75,1-2.8a10,10,0,0,0,1.19-.45c0-.11-.13-.38-.13-.38l.35-1,.35,1s-.22.22-.2.36,1,.25,1,.25.69,2.09.79,2.27.12.91.19,1A2,2,0,0,1,59.37,36.82Zm9.53,0v-.1c.09-.07.54-.34.61-.39s1.66-.05,1.66-.05.49.28.59.36a.58.58,0,0,1,.15.18Zm12.89-.23a.49.49,0,0,1-.15.23H79.19s0-6,.32-6.16a14.78,14.78,0,0,1,1.76,3.78A16.85,16.85,0,0,1,81.78,36.6Zm6.58.22a1.49,1.49,0,0,1-.19-.41,11.61,11.61,0,0,1,.14-2.28c.15-.11,0-1.47.09-1.48a4,4,0,0,0,.3-1c0-.13.38-.95.51-.94s.28.47.2.73.27.49.27.49-.06.25,0,.32.28.13.25.2-.06.32,0,.39.06.4.1.49a3.84,3.84,0,0,1,.35.88c0,.14.19,1.75.23,2.12s.16.45.16.45Zm9,0s-.06-.78-.08-.89a6.19,6.19,0,0,1,.08-.92,2.34,2.34,0,0,1,.8-.7c.13,0,1.57,1.22,2.07,1.21a8.87,8.87,0,0,0,1.79-.59c.09,0,.44.15.39.19s.11,1.71.11,1.71Z"/></svg>