<?xml version="1.0" encoding="utf-8"?>
<!-- Generator: Adobe Illustrator 21.0.0, SVG Export Plug-In . SVG Version: 6.00 Build 0)  -->
<svg version="1.1" id="Calque_1" xmlns="http://www.w3.org/2000/svg" xmlns:xlink="http://www.w3.org/1999/xlink" x="0px" y="0px"
	 viewBox="0 0 154 32" style="enable-background:new 0 0 154 32;" xml:space="preserve">
<style type="text/css">
	.st0{fill:#FFFFFF;}
</style>
<title>opcom_logo</title>
<desc>Created with Sketch.</desc>
<g id="Symbols_x2F_Header_x5F_Footer">
	<g id="HF_x2F_Header_x2F_Parts_x2F_OPcom-Logo" transform="translate(-21.000000, -16.000000)">
		<path id="opcom_logo" class="st0" d="M42,28.8c-1.5,0-2.7,1.2-2.7,2.7s1.2,2.7,2.7,2.7c1.5,0,2.7-1.2,2.7-2.7
			c0-0.7-0.3-1.4-0.8-1.9S42.8,28.8,42,28.8L42,28.8z M153.8,37.4h-3.2v-4.6h4v-2.5h-4v-4.3h3.2v3.4h3.8v-9.5h-13.3v6.1h1.6v11.3
			h-1.6v6.3h13.6v-9.8h-4.1L153.8,37.4L153.8,37.4z M124.3,37.4H121v-4.6h4v-2.5h-4v-4.3h3.2v3.4h3.8v-9.5h-13.3v6.1h1.6v11.3h-1.6
			v6.3h13.6v-9.8h-4.1L124.3,37.4L124.3,37.4z M138.1,32.9v1.9c0,1.8-0.5,2.7-1.5,2.7c-1,0-1.5-1.6-1.6-4.9c-0.1-1.8,0-3.6,0.2-5.3
			c0.1-0.6,0.7-1,1.4-1c1.1,0,1.6,1,1.6,2.9v0.4h4v-9.5h-4v1.4c-0.7-1.1-1.9-1.8-3.2-1.7c-1.7-0.2-3.3,0.8-3.9,2.5
			c-0.6,1.6-1,5-1,9.9c0,5.1,0.4,8.4,1.1,9.8s2.5,2.1,5.3,2.1c4.1,0,6.1-2.5,6.1-7.5c0-1.3-0.1-2.5-0.2-3.8L138.1,32.9L138.1,32.9z
			 M173.9,40.1l-0.3-0.1 M63.2,26.1h2v10.5l-5-16.5h-4.8c0.1-0.4,0-0.9-0.3-1.2c-0.4-0.5-1-0.8-1.6-0.8c0.1-0.6-0.2-1.2-0.7-1.7
			c-0.3-0.2-0.7-0.4-1.1-0.4c-0.5,0-1,0.3-1.4,0.7c-0.5,0.7-0.6,1.6-0.3,2.5l-2.4,2.3c-5.4-4.8-13.6-4.8-19,0l-2.4-2.3
			c0.3-0.8,0.2-1.8-0.3-2.5c-0.3-0.4-0.8-0.7-1.4-0.7c-0.4,0-0.8,0.1-1.1,0.4c-0.5,0.4-0.7,1-0.7,1.7c-0.6,0-1.2,0.3-1.6,0.8
			c-0.3,0.4-0.3,0.9-0.2,1.3c0.1,0.4,0.4,0.8,0.8,1.1c0.8,0.5,1.7,0.5,2.5,0.1l2.4,2.3c-3.7,5-3.7,11.7,0,16.7l-2.4,2.3
			c-0.8-0.4-1.7-0.3-2.5,0.1c-0.4,0.2-0.7,0.6-0.8,1.1c-0.1,0.4,0,0.9,0.2,1.3c0.4,0.5,1,0.8,1.6,0.8c-0.1,0.6,0.2,1.2,0.7,1.7
			c0.3,0.2,0.7,0.4,1.1,0.4c0.5,0,1-0.3,1.4-0.7c0.5-0.7,0.6-1.6,0.3-2.5l2.4-2.3c5.4,4.8,13.6,4.8,19,0l2.4,2.3
			c-0.3,0.8-0.2,1.8,0.3,2.5c0.3,0.4,0.8,0.7,1.4,0.7c0.4,0,0.8-0.1,1.1-0.4c0.5-0.4,0.7-1,0.7-1.7c0.6,0,1.2-0.3,1.6-0.8
			c0.3-0.4,0.4-0.9,0.2-1.4h4.2v-6.3h-1.9V25.1l5.6,18.7h5.1V26.1h1.6V20h-6.7V26.1L63.2,26.1z M38.3,20.3c2.8,0,5.4,1.4,7,3.7H31.3
			C32.9,21.7,35.5,20.3,38.3,20.3L38.3,20.3z M33.5,39.4c0-0.5,0-0.9,0.1-1.4c0.6,0.3,1.2,0.5,1.8,0.6l-0.1,1.5
			C34.7,40,34.1,39.8,33.5,39.4L33.5,39.4L33.5,39.4z M33.6,37.7c0.1-0.6,0.2-1.1,0.3-1.4c0.5,0.3,1,0.5,1.6,0.7l-0.1,1.2
			C34.8,38.1,34.2,37.9,33.6,37.7L33.6,37.7L33.6,37.7z M42.5,42.1c-0.9,1.4-2.8,1.7-4.2,1.7c-1.4,0-3.2-0.3-4.2-1.7
			c-0.4-0.7-0.6-1.4-0.6-2.2c3,1.5,6.6,1.5,9.6,0C43.1,40.7,42.9,41.4,42.5,42.1L42.5,42.1z M38.1,39.1v1.5c-0.8,0-1.6-0.1-2.4-0.3
			l0.1-1.5C36.6,39,37.3,39.1,38.1,39.1L38.1,39.1z M35.8,38.4l0.1-1.3c0.7,0.2,1.5,0.3,2.2,0.3v1.3C37.3,38.7,36.6,38.6,35.8,38.4
			L35.8,38.4z M40.8,38.8l0.1,1.5c-0.8,0.2-1.6,0.3-2.3,0.3v-1.5C39.3,39.1,40,39,40.8,38.8L40.8,38.8z M38.5,38.7v-1.3
			c0.7,0,1.4-0.1,2.1-0.3l0.1,1.3C40,38.6,39.2,38.7,38.5,38.7L38.5,38.7z M41,37c0.6-0.2,1.1-0.4,1.6-0.7c0.1,0.3,0.2,0.8,0.3,1.4
			l0,0c-0.6,0.2-1.2,0.5-1.8,0.6L41,37C41.1,37,41.1,37,41,37L41,37z M43.1,39.4c-0.6,0.3-1.2,0.6-1.8,0.8l-0.1-1.5
			c0.6-0.2,1.2-0.4,1.8-0.6C43,38.5,43.1,39,43.1,39.4L43.1,39.4L43.1,39.4z M38.3,37.1c-4.6,0-8.4-3.7-8.4-8.4v-0.6h16.8v0.6
			C46.6,33.3,42.9,37.1,38.3,37.1L38.3,37.1z M25.8,27.7h-0.2c1.3-0.9,2.9-1.3,4.5-1.3h16.5c1.6,0,3.2,0.4,4.5,1.3h-0.2H25.8
			L25.8,27.7z M54.6,37.4h-1.6v5c-0.3,0-0.5,0.1-0.7,0.2l-2.4-2.3c3.7-5,3.7-11.7,0-16.7l2.4-2.3c0.2,0.1,0.5,0.2,0.7,0.2v4.6h1.6
			V37.4L54.6,37.4z M38.3,33.6c-0.6,0-1.2,0.5-1.1,1.2s0.5,1.2,1.2,1.2c0.6,0,1.2-0.5,1.2-1.2C39.5,34.1,38.9,33.6,38.3,33.6z
			 M104.9,26.1h1.6v11.3h-1.6v6.3h7.8v-6.3H111V26.1h1.7v-6h-7.8V26.1z M34.6,28.8c-1.5,0-2.7,1.2-2.7,2.7c0,1.5,1.2,2.7,2.7,2.7
			c1.5,0,2.7-1.2,2.7-2.7c0-0.7-0.3-1.4-0.8-1.9S35.3,28.8,34.6,28.8L34.6,28.8z M96.6,20.1h-6.5v6h1.6v11.4h-1.6v6.3H98v-6.3h-1.8
			v-3.9h1.1c2.6,0,4.2-0.4,5.1-1.2c0.8-0.8,1.2-2.5,1.2-5c0-2.8-0.5-4.8-1.4-5.8C101.3,20.6,99.4,20.1,96.6,20.1L96.6,20.1z
			 M97.2,30.9h-1v-4.8h0.6c1.6,0,2.3,0.8,2.3,2.5C99.2,30.2,98.5,30.9,97.2,30.9L97.2,30.9z M81,37.4h-3.2v-4.6h4v-2.4h-4v-4.3H81
			v3.4h3.8v-9.5H71.6v6.1h1.6v11.3h-1.6v6.3h13.6v-9.8H81L81,37.4L81,37.4z"/>
	</g>
</g>
</svg>
